<svg xmlns="http://www.w3.org/2000/svg" version="1.1" xmlns:xlink="http://www.w3.org/1999/xlink" width="90" height="90"><svg width="90" height="90" viewBox="0 0 90 90" fill="none" xmlns="http://www.w3.org/2000/svg">
<path d="M90 90H0V0H90V90ZM14.793 83H24.0186V67.5312H30.7529L39.0186 83H49.2031L39.9443 66.0459C40.0773 65.9882 40.2099 65.9302 40.3398 65.8691C42.7118 64.7612 44.5225 63.1704 45.7725 61.0967C47.0224 59.0087 47.6474 56.5158 47.6475 53.6182C47.6475 50.7347 47.0297 48.2274 45.7939 46.0967C44.5724 43.9518 42.79 42.2966 40.4463 41.1318C38.1168 39.9529 35.3041 39.3633 32.0088 39.3633H14.793V83ZM55.793 39.3633V83H80.7256C82.3824 83 83.7256 81.6569 83.7256 80V75.3936H65.0186V39.3633H55.793ZM30.2402 46.9062C32.0156 46.9063 33.4857 47.1689 34.6504 47.6943C35.8294 48.2057 36.7033 48.9588 37.2715 49.9531C37.8538 50.9474 38.1445 52.1693 38.1445 53.6182C38.1445 55.0527 37.8538 56.2529 37.2715 57.2188C36.7033 58.1846 35.8366 58.9086 34.6719 59.3916C33.5071 59.8746 32.0436 60.1162 30.2822 60.1162H24.0186V46.9062H30.2402Z" fill="#F34D7E"></path>
</svg><style>@media (prefers-color-scheme: light) { :root { filter: none; } }
@media (prefers-color-scheme: dark) { :root { filter: none; } }
</style></svg>